<?xml version="1.0" encoding="UTF-8" standalone="no"?>
<svg
   xmlns:dc="http://purl.org/dc/elements/1.1/"
   xmlns:cc="http://creativecommons.org/ns#"
   xmlns:rdf="http://www.w3.org/1999/02/22-rdf-syntax-ns#"
   xmlns:svg="http://www.w3.org/2000/svg"
   xmlns="http://www.w3.org/2000/svg"
   xmlns:sodipodi="http://sodipodi.sourceforge.net/DTD/sodipodi-0.dtd"
   xmlns:inkscape="http://www.inkscape.org/namespaces/inkscape"
   version="1.1"
   id="svg2"
   xml:space="preserve"
   width="257.33334"
   height="257.33334"
   viewBox="0 0 257.33334 257.33334"
   sodipodi:docname="IKEA.eps"><metadata
     id="metadata8"><rdf:RDF><cc:Work
         rdf:about=""><dc:format>image/svg+xml</dc:format><dc:type
           rdf:resource="http://purl.org/dc/dcmitype/StillImage" /></cc:Work></rdf:RDF></metadata><defs
     id="defs6" /><sodipodi:namedview
     pagecolor="#ffffff"
     bordercolor="#666666"
     borderopacity="1"
     objecttolerance="10"
     gridtolerance="10"
     guidetolerance="10"
     inkscape:pageopacity="0"
     inkscape:pageshadow="2"
     inkscape:window-width="640"
     inkscape:window-height="480"
     id="namedview4" /><g
     id="g10"
     inkscape:groupmode="layer"
     inkscape:label="ink_ext_XXXXXX"
     transform="matrix(1.3333333,0,0,-1.3333333,0,257.33333)"><g
       id="g12"
       transform="scale(0.1)"><path
         d="M 0,1927.56 H 1927.56 V 0 H 0 v 1927.56"
         style="fill:#ffffff;fill-opacity:1;fill-rule:evenodd;stroke:none"
         id="path14" /><path
         d="M 1746.27,667.234 V 1233.28 H 104.133 V 667.234 H 1746.27"
         style="fill:#186dbf;fill-opacity:1;fill-rule:nonzero;stroke:none"
         id="path16" /><path
         d="m 925.203,681.961 c 446.957,0 809.297,120.117 809.297,268.293 0,148.176 -362.34,268.306 -809.297,268.306 -446.957,0 -809.301,-120.13 -809.301,-268.306 0,-148.176 362.344,-268.293 809.301,-268.293"
         style="fill:#feea13;fill-opacity:1;fill-rule:nonzero;stroke:none"
         id="path18" /><path
         d="m 478.648,838.813 c 3.836,0 5.372,1.531 3.325,3.835 -1.602,1.805 -4.348,14.067 -4.348,27.114 v 152.428 c 0,13.05 2.746,25.31 4.348,27.11 2.047,2.31 0.511,3.84 -3.325,3.84 H 340.793 c -3.836,0 -5.371,-1.53 -3.324,-3.84 1.601,-1.8 4.347,-14.06 4.347,-27.11 V 869.762 c 0,-13.047 -2.746,-25.309 -4.347,-27.114 -2.047,-2.304 -0.512,-3.835 3.324,-3.835 h 137.855"
         style="fill:#1a68bb;fill-opacity:1;fill-rule:nonzero;stroke:none"
         id="path20" /><path
         d="m 686.203,976.633 50.168,68.067 c 2.047,2.05 1.024,4.86 1.024,6.14 0,1.28 0,2.3 1.023,2.3 h 136.066 c 1.789,0 1.024,-1.28 0.254,-2.3 l -56.011,-78.262 c -2.559,-3.328 -2.047,-6.402 0.511,-9.723 l 76.985,-121.738 c 0.765,-1.023 1.531,-2.304 -0.258,-2.304 H 729.723 c -1.024,0 -1.024,1.027 -1.024,2.304 0,1.274 2.559,12.278 0.512,14.321 l -42.965,65.753 -0.004,-51.429 c 0,-13.047 2.742,-25.309 4.348,-27.114 2.047,-2.304 0.512,-3.835 -3.324,-3.835 H 553.504 c -3.836,0 -5.371,1.531 -3.324,3.835 1.601,1.805 4.343,14.067 4.343,27.114 v 152.428 c 0,13.05 -2.742,25.31 -4.343,27.11 -2.047,2.31 -0.512,3.84 3.324,3.84 h 133.762 c 3.836,0 5.371,-1.53 3.324,-3.84 -1.606,-1.8 -4.348,-14.06 -4.348,-27.11 l -0.039,-45.557"
         style="fill:#1a68bb;fill-opacity:1;fill-rule:nonzero;stroke:none"
         id="path22" /><path
         d="m 1072.18,918.387 c 0,0.855 0.33,3.843 3.85,3.843 h 52.93 c 5.47,0 25.14,0.668 26.83,-1.019 1.69,-1.695 3.79,-0.641 3.79,2.57 v 51.371 c 0,3.211 -2.1,4.27 -3.79,2.575 -1.69,-1.692 -21.36,-1.02 -26.83,-1.02 h -52.94 c -3.51,0 -3.84,2.988 -3.84,3.844 l 0.01,10.406 c 0,0.856 0.33,3.848 3.85,3.848 h 76.08 c 12.9,0 25.04,-2.719 26.82,-4.305 2.28,-2.023 3.79,-0.504 3.79,3.289 v 59.381 H 943.082 c -3.797,0 -5.316,-1.91 -3.289,-4.19 1.586,-1.78 4.301,-13.92 4.301,-26.83 V 871.32 c 0,-12.906 -2.715,-25.039 -4.301,-26.824 -2.027,-2.277 -0.516,-3.793 3.281,-3.793 l 239.646,0.012 v 63.082 c 0,3.793 -1.52,5.316 -3.79,3.293 -1.79,-1.59 -13.92,-4.309 -26.83,-4.309 h -76.08 c -3.52,0 -3.85,2.989 -3.85,3.848 l 0.01,11.758"
         style="fill:#1a68bb;fill-opacity:1;fill-rule:nonzero;stroke:none"
         id="path24" /><path
         d="m 1562.45,840.703 c 0,0 -79.59,189.157 -80.74,192.297 -1.14,3.14 -2.28,8.56 -0.28,13.41 2,4.85 0.28,5.99 -3.14,5.99 h -186.31 c -3.43,0 -5.14,-1.14 -3.14,-5.99 1.99,-4.85 0.85,-10.27 -0.29,-13.41 -1.14,-3.14 -71.61,-192.297 -71.61,-192.297 h 114.56 c 2.71,0 3.27,1.281 2.42,3.133 -0.86,1.859 -0.86,6.137 0.42,9.277 l 6.14,20.399 c 2,5.703 4.85,6.562 9.7,6.562 h 50.36 c 4.85,0 7.7,-0.859 9.7,-6.562 l 6.14,-20.399 c 1.28,-3.14 1.28,-7.418 0.42,-9.277 -0.85,-1.852 -0.28,-3.133 2.43,-3.133 z m -203.06,81.168 c -1.79,0.145 -2,2.004 -1.5,3.285 l 12.4,29.387 c 0.51,0.848 0.8,1.715 1.86,1.715 1.07,0 1.36,-0.867 1.85,-1.715 l 12.41,-29.387 c 0.5,-1.281 0.29,-3.14 -1.49,-3.285 h -25.53"
         style="fill:#1a68bb;fill-opacity:1;fill-rule:nonzero;stroke:none"
         id="path26" /><path
         d="m 1810.41,1213.39 c 7.48,0 14.17,0.53 14.17,9.49 0,7.22 -6.55,8.56 -12.71,8.56 h -12.03 v -18.05 z m -10.57,-32.76 h -8.82 v 58.3 h 22.19 c 13.77,0 20.59,-5.08 20.59,-16.58 0,-10.43 -6.55,-14.98 -15.1,-16.05 l 16.57,-25.67 h -9.89 L 1810,1205.9 h -10.16 z m 10.7,-12.97 c 22.87,0 40.91,17.91 40.91,42.25 0,23.94 -18.04,41.99 -40.91,41.99 -23.13,0 -41.19,-18.05 -41.19,-41.99 0,-24.34 18.06,-42.25 41.19,-42.25 z m -51.35,42.25 c 0,29.02 23.54,50.41 51.35,50.41 27.54,0 51.07,-21.39 51.07,-50.41 0,-29.28 -23.53,-50.67 -51.07,-50.67 -27.81,0 -51.35,21.39 -51.35,50.67"
         style="fill:#1a68bb;fill-opacity:1;fill-rule:nonzero;stroke:none"
         id="path28" /></g></g></svg>
